<svg xmlns="http://www.w3.org/2000/svg" width="62.799" height="55.543" viewBox="0 0 62.799 55.543">
  <g id="blueprint" transform="translate(0 -0.5)">
    <path id="Path_257" data-name="Path 257" d="M224.233,44.659h-9.827l5.868-6.532a1.825,1.825,0,0,0-.138-2.578l-2.524-2.266a1.827,1.827,0,0,0-2.578.138l-10.1,11.239h-17.57a.92.92,0,0,0,0,1.84h15.918l-4.1,4.569a1.815,1.815,0,0,0-.465,1.318c0,.057.009.114.017.171l-1.411,3.814a1.462,1.462,0,0,0,2.024,1.818l3.645-1.812c.023,0,.046,0,.069,0l.1,0a1.815,1.815,0,0,0,1.261-.6l8.331-9.275h11.479a.307.307,0,0,1,.307.307V82.248a.307.307,0,0,1-.307.307h-6.692a.92.92,0,1,0,0,1.84h6.692a2.149,2.149,0,0,0,2.146-2.146V46.806a2.149,2.149,0,0,0-2.146-2.146ZM218.9,36.908,217.8,38.124l-2.5-2.247,1.093-1.216Zm-4.824.338.567.509L201.128,52.8l-.567-.509ZM200.051,54.3l1.063.955-1.734.862Zm3.012.232-.567-.509,13.511-15.041.566.509Zm0,0" transform="translate(-163.581 -28.352)" fill="#fff"/>
    <path id="Path_258" data-name="Path 258" d="M49.954,54.2H8.579A6.747,6.747,0,0,1,1.84,47.464v-.486a6.746,6.746,0,0,1,6.739-6.739h1.891a2.149,2.149,0,0,0,2.146-2.146V18.147h7.167a.92.92,0,0,0,0-1.84H12.615V13.113a.92.92,0,0,0-1.84,0V38.092a.307.307,0,0,1-.307.307H8.578A8.568,8.568,0,0,0,1.84,41.674V9.079A6.747,6.747,0,0,1,8.579,2.34h1.89a.307.307,0,0,1,.307.307v6.46a.92.92,0,0,0,1.84,0V2.647A2.149,2.149,0,0,0,10.469.5H8.579A8.589,8.589,0,0,0,0,9.079V47.464a8.589,8.589,0,0,0,8.579,8.579H49.954a.92.92,0,1,0,0-1.84Zm0,0" fill="#fff"/>
    <path id="Path_259" data-name="Path 259" d="M312.827,208.555a7.081,7.081,0,0,0-7.059,6.649h-4.235a.92.92,0,0,0-.92.92v10.508a.92.92,0,0,0,.92.92h10.508a.92.92,0,0,0,.92-.92V222.7a7.073,7.073,0,0,0-.134-14.144Zm-1.706,12.021a5.254,5.254,0,0,1-3.332-3.532h3.332Zm-8.669,5.136v-8.668H305.9a7.1,7.1,0,0,0,5.225,5.45v3.219Zm10.509-4.853v-4.736a.92.92,0,0,0-.92-.92h-4.429a5.233,5.233,0,1,1,5.349,5.656Zm0,0" transform="translate(-263.742 -182.536)" fill="#fff"/>
    <path id="Path_260" data-name="Path 260" d="M421.479,329.078a.92.92,0,0,0,0,1.84h2.046a.92.92,0,0,0,0-1.84Zm0,0" transform="translate(-368.975 -288.276)" fill="#fff"/>
    <path id="Path_261" data-name="Path 261" d="M424.445,349.354a.92.92,0,0,0-.92-.92h-2.046a.92.92,0,1,0,0,1.84h2.046A.92.92,0,0,0,424.445,349.354Zm0,0" transform="translate(-368.975 -305.258)" fill="#fff"/>
    <path id="Path_262" data-name="Path 262" d="M130.42,192.406h1.472a.92.92,0,0,0,0-1.84H130.42a.92.92,0,1,0,0,1.84Zm0,0" transform="translate(-113.616 -166.753)" fill="#fff"/>
    <path id="Path_263" data-name="Path 263" d="M130.42,214.258h7.1a.92.92,0,1,0,0-1.84h-7.1a.92.92,0,1,0,0,1.84Zm0,0" transform="translate(-113.616 -185.925)" fill="#fff"/>
    <path id="Path_264" data-name="Path 264" d="M176.315,192.406h1.472a.92.92,0,1,0,0-1.84h-1.472a.92.92,0,0,0,0,1.84Zm0,0" transform="translate(-153.882 -166.753)" fill="#fff"/>
    <path id="Path_265" data-name="Path 265" d="M223.681,190.566h-1.472a.92.92,0,0,0,0,1.84h1.472a.92.92,0,0,0,0-1.84Zm0,0" transform="translate(-194.147 -166.753)" fill="#fff"/>
    <path id="Path_266" data-name="Path 266" d="M130.42,235.945h7.1a.92.92,0,0,0,0-1.84h-7.1a.92.92,0,0,0,0,1.84Zm0,0" transform="translate(-113.616 -204.952)" fill="#fff"/>
    <path id="Path_267" data-name="Path 267" d="M129.5,256.709a.92.92,0,0,0,.92.92h11.258a.92.92,0,0,0,0-1.84H130.42A.92.92,0,0,0,129.5,256.709Zm0,0" transform="translate(-113.616 -223.976)" fill="#fff"/>
    <path id="Path_268" data-name="Path 268" d="M144.07,278.4a.92.92,0,0,0-.92-.92H130.42a.92.92,0,1,0,0,1.84h12.73A.92.92,0,0,0,144.07,278.4Zm0,0" transform="translate(-113.616 -243.004)" fill="#fff"/>
    <path id="Path_269" data-name="Path 269" d="M133.875,313.338a.92.92,0,0,0-.92-.92H130.42a.92.92,0,0,0-.92.92v2.535a.92.92,0,0,0,.92.92h2.535a.92.92,0,0,0,.92-.92Zm-1.84,1.615h-.7v-.7h.7Zm0,0" transform="translate(-113.616 -273.659)" fill="#fff"/>
    <path id="Path_270" data-name="Path 270" d="M183.461,313.338a.92.92,0,0,0-.92-.92h-2.535a.92.92,0,0,0-.92.92v2.535a.92.92,0,0,0,.92.92h2.535a.92.92,0,0,0,.92-.92Zm-1.84,1.615h-.7v-.7h.7Zm0,0" transform="translate(-157.12 -273.659)" fill="#fff"/>
    <path id="Path_271" data-name="Path 271" d="M233.051,313.338a.92.92,0,0,0-.92-.92H229.6a.92.92,0,0,0-.92.92v2.535a.92.92,0,0,0,.92.92h2.535a.92.92,0,0,0,.92-.92Zm-1.84,1.615h-.7v-.7h.7Zm0,0" transform="translate(-200.628 -273.659)" fill="#fff"/>
    <path id="Path_272" data-name="Path 272" d="M132.955,365.086H130.42a.92.92,0,0,0-.92.92v2.535a.92.92,0,0,0,.92.92h2.535a.92.92,0,0,0,.92-.92v-2.535A.92.92,0,0,0,132.955,365.086Zm-.92,2.535h-.7v-.7h.7Zm0,0" transform="translate(-113.616 -319.867)" fill="#fff"/>
    <path id="Path_273" data-name="Path 273" d="M182.541,365.086h-2.535a.92.92,0,0,0-.92.92v2.535a.92.92,0,0,0,.92.92h2.535a.92.92,0,0,0,.92-.92v-2.535A.92.92,0,0,0,182.541,365.086Zm-.92,2.535h-.7v-.7h.7Zm0,0" transform="translate(-157.12 -319.867)" fill="#fff"/>
    <path id="Path_274" data-name="Path 274" d="M229.6,369.457h2.535a.92.92,0,0,0,.92-.92V366a.92.92,0,0,0-.92-.92H229.6a.92.92,0,0,0-.92.92v2.535A.92.92,0,0,0,229.6,369.457Zm.92-2.535h.7v.695h-.7Zm0,0" transform="translate(-200.628 -319.864)" fill="#fff"/>
  </g>
</svg>
