<svg xmlns="http://www.w3.org/2000/svg" width="505.974" height="566.345" viewBox="0 0 505.974 566.345">
  <g id="Group_88" data-name="Group 88" transform="translate(-116.772 -319.119)" opacity="0.04">
    <path id="Path_30" data-name="Path 30" d="M348.32,802.892v28.932H227.437V851.4H348.282v27.719H161.132V320.87c21.168,14.066,41.008,26.516,59.819,40.371,3.841,2.828,5.262,10.9,5.317,16.586.423,43.8.232,87.611.232,133.3H348.9v28.655H227.735c-.537,6.967-.957,12.454-1.532,19.983H348.5v28.7H227.607c-.44,7.116-.78,12.593-1.241,20.021H348.271V637.26h-120.8v19.5H348.174v28.166H227.967v20.659H348.289v28.322H227.776c-.568,7.185-1,12.655-1.553,19.619H347.811v29.3H227.638c-.454,7.106-.8,12.551-1.279,20.066Z" transform="translate(109.4 4.319)" fill="#e35760" fill-rule="evenodd"/>
    <path id="Path_31" data-name="Path 31" d="M220.08,734.711V379.181c15.837,23.317,35.539,37.258,34.149,66.384-2.336,48.988-.645,98.166-.648,147.268,0,5.646,0,11.3,0,18.482h66.956v123.4Z" transform="translate(254.777 148.125)" fill="#e35760" fill-rule="evenodd"/>
    <path id="Path_32" data-name="Path 32" d="M119.775,333.166H247.542v26.007c-40.052,0-79.126.964-118.114-.433C111.581,358.1,122.891,343.339,119.775,333.166Z" transform="translate(5.645 34.643)" fill="#e35760" fill-rule="evenodd"/>
    <path id="Path_33" data-name="Path 33" d="M119.533,457.135v-24.61H246.24v24.61Z" transform="translate(6.809 279.681)" fill="#e35760" fill-rule="evenodd"/>
    <path id="Path_34" data-name="Path 34" d="M247.41,404.215v25.432c-40.055,0-79.078.939-118.024-.413-18.145-.631-6.017-15.529-9.7-25.019Z" transform="translate(5.684 209.864)" fill="#e35760" fill-rule="evenodd"/>
    <path id="Path_35" data-name="Path 35" d="M121.413,372.99c-4.246-25.868-4.243-25.9,19.126-25.92,35.009-.024,70.017,0,106.235,0V372.99Z" transform="translate(6.125 68.903)" fill="#e35760" fill-rule="evenodd"/>
    <path id="Path_36" data-name="Path 36" d="M246.746,386.857H122.005c-5.536-24.534-4.61-25.657,18.364-25.549q43.294.2,86.592.042C249.457,361.294,249.457,361.211,246.746,386.857Z" transform="translate(5.949 104.033)" fill="#e35760" fill-rule="evenodd"/>
    <path id="Path_37" data-name="Path 37" d="M119.517,442.9V418.378H246.085V442.9Z" transform="translate(6.77 244.792)" fill="#e35760" fill-rule="evenodd"/>
    <path id="Path_38" data-name="Path 38" d="M119.593,319.119H245.9v24.128h-126.3Z" transform="translate(6.957 0.001)" fill="#e35760" fill-rule="evenodd"/>
    <path id="Path_39" data-name="Path 39" d="M285.5,562.859H253.088V449.185c22.461,12.714,36.638,28.225,32.873,56.26C283.535,523.535,285.5,542.211,285.5,562.859Z" transform="translate(336.181 320.768)" fill="#e35760" fill-rule="evenodd"/>
    <path id="Path_40" data-name="Path 40" d="M246.2,446.82v23.563H119.6V446.82Z" transform="translate(6.965 314.935)" fill="#e35760" fill-rule="evenodd"/>
    <path id="Path_41" data-name="Path 41" d="M119.669,390.014h126.4v23.6h-126.4Z" transform="translate(7.145 174.841)" fill="#e35760" fill-rule="evenodd"/>
    <path id="Path_42" data-name="Path 42" d="M246.391,461.012v23.362H119.577V461.012Z" transform="translate(6.918 349.936)" fill="#e35760" fill-rule="evenodd"/>
    <path id="Path_43" data-name="Path 43" d="M246.526,475.768V499.13H119.709V475.768Z" transform="translate(7.243 386.327)" fill="#e35760" fill-rule="evenodd"/>
    <path id="Path_44" data-name="Path 44" d="M246.353,375.945v23.431H119.563V375.945Z" transform="translate(6.883 140.144)" fill="#e35760" fill-rule="evenodd"/>
    <rect id="Rectangle_50" data-name="Rectangle 50" width="13.245" height="566.344" transform="translate(116.772 319.119)" fill="#e35760"/>
  </g>
</svg>
