<svg xmlns="http://www.w3.org/2000/svg" width="54.19" height="52.596" viewBox="0 0 54.19 52.596">
  <path id="iconfinder_bed_2023114" d="M70.19,55.252,58.236,28.157V17H27.157V28.157L16,55.252v10.36h2.391V69.6h6.375V65.611H61.424V69.6H67.8V65.611H70.19ZM28.751,28.157V18.594H56.642v9.563L68.508,55.252H17.681ZM23.172,68H19.985V65.611h3.188Zm43.033,0H63.018V65.611h3.188ZM68.6,64.018h-51V56.845h51ZM56.4,33.735H30.1L22.814,52.861H63.679ZM25.125,51.267l6.064-15.938H55.3L61.36,51.267ZM42.3,27.4a3.227,3.227,0,0,0-3.227-3.227h-6.3A3.227,3.227,0,0,0,29.547,27.4v2.311a3.227,3.227,0,0,0,3.227,3.227h6.3A3.227,3.227,0,0,0,42.3,29.711ZM40.7,29.711a1.634,1.634,0,0,1-1.634,1.634h-6.3a1.634,1.634,0,0,1-1.634-1.634V27.4a1.634,1.634,0,0,1,1.634-1.634h6.3A1.634,1.634,0,0,1,40.7,27.4ZM55.845,27.4a3.227,3.227,0,0,0-3.227-3.227h-6.3A3.227,3.227,0,0,0,43.095,27.4v2.311a3.227,3.227,0,0,0,3.227,3.227h6.3a3.227,3.227,0,0,0,3.227-3.227Zm-1.594,2.311a1.634,1.634,0,0,1-1.634,1.634h-6.3a1.634,1.634,0,0,1-1.634-1.634V27.4a1.634,1.634,0,0,1,1.634-1.634h6.3A1.634,1.634,0,0,1,54.252,27.4Z" transform="translate(-16 -17)" fill="#fff"/>
</svg>
