<svg xmlns="http://www.w3.org/2000/svg" width="51.923" height="51.923" viewBox="0 0 51.923 51.923">
  <path id="interior-design" d="M50.4,0H1.521A1.521,1.521,0,0,0,0,1.521V50.4a1.521,1.521,0,0,0,1.521,1.521H50.4A1.521,1.521,0,0,0,51.923,50.4V1.521A1.521,1.521,0,0,0,50.4,0ZM3.042,5.277l8.916,8.916V37.814L3.042,46.729Zm34.772,6.681H14.026L5.11,3.042H46.729ZM27.5,36.923h-3.08V28.294H27.5Zm1.521-11.671H22.9a1.521,1.521,0,0,0-1.521,1.521V36.923H15V15H36.923V36.923H30.544V26.773a1.521,1.521,0,0,0-1.521-1.521ZM14.109,39.965H37.73l8.916,8.916H5.194ZM39.965,37.9V14.109L48.88,5.194V46.813Zm0,0" fill="#fff"/>
</svg>
