<svg id="kitchen" xmlns="http://www.w3.org/2000/svg" width="43.945" height="43.945" viewBox="0 0 43.945 43.945">
  <g id="SVGCleanerId_0" transform="translate(11.719 26.367)">
    <g id="Group_19" data-name="Group 19">
      <path id="Path_14" data-name="Path 14" d="M156.309,307.2H137.266a.732.732,0,0,0-.732.732v16.113a.732.732,0,0,0,.732.732h19.043a.732.732,0,0,0,.732-.732V307.932A.732.732,0,0,0,156.309,307.2Zm-.732,16.113H138V308.665h17.578Z" transform="translate(-136.534 -307.2)" fill="#fff"/>
    </g>
  </g>
  <g id="Group_21" data-name="Group 21" transform="translate(11.719 26.367)">
    <g id="Group_20" data-name="Group 20">
      <path id="Path_15" data-name="Path 15" d="M156.309,307.2H137.266a.732.732,0,0,0-.732.732v16.113a.732.732,0,0,0,.732.732h19.043a.732.732,0,0,0,.732-.732V307.932A.732.732,0,0,0,156.309,307.2Zm-.732,16.113H138V308.665h17.578Z" transform="translate(-136.534 -307.2)" fill="#fff"/>
    </g>
  </g>
  <g id="Group_23" data-name="Group 23" transform="translate(0 26.367)">
    <g id="Group_22" data-name="Group 22">
      <path id="Path_16" data-name="Path 16" d="M12.451,307.2H.732a.732.732,0,0,0-.732.732v16.113a.732.732,0,0,0,.732.732H12.451a.732.732,0,0,0,.732-.732V307.932A.732.732,0,0,0,12.451,307.2Zm-.732,16.113H1.465V308.665H11.719v14.648Z" transform="translate(0 -307.2)" fill="#fff"/>
    </g>
  </g>
  <g id="Group_25" data-name="Group 25" transform="translate(30.762 26.367)">
    <g id="Group_24" data-name="Group 24">
      <path id="Path_17" data-name="Path 17" d="M370.851,307.2H359.132a.732.732,0,0,0-.732.732v16.113a.732.732,0,0,0,.732.732h11.719a.732.732,0,0,0,.732-.732V307.932A.732.732,0,0,0,370.851,307.2Zm-.732,16.113H359.865V308.665h10.254v14.648Z" transform="translate(-358.4 -307.2)" fill="#fff"/>
    </g>
  </g>
  <g id="Group_27" data-name="Group 27" transform="translate(14.648 32.226)">
    <g id="Group_26" data-name="Group 26">
      <path id="Path_18" data-name="Path 18" d="M184.583,375.467H171.4a.732.732,0,0,0-.732.732v7.324a.732.732,0,0,0,.732.732h13.184a.732.732,0,0,0,.732-.732V376.2A.732.732,0,0,0,184.583,375.467Zm-.732,7.324H172.132v-5.859H183.85v5.859Z" transform="translate(-170.667 -375.467)" fill="#fff"/>
    </g>
  </g>
  <g id="Group_29" data-name="Group 29" transform="translate(22.705 29.297)">
    <g id="Group_28" data-name="Group 28">
      <rect id="Rectangle_9" data-name="Rectangle 9" width="1.465" height="1.465" fill="#fff"/>
    </g>
  </g>
  <g id="Group_31" data-name="Group 31" transform="translate(19.775 29.297)">
    <g id="Group_30" data-name="Group 30">
      <rect id="Rectangle_10" data-name="Rectangle 10" width="1.465" height="1.465" fill="#fff"/>
    </g>
  </g>
  <g id="Group_33" data-name="Group 33" transform="translate(16.846 29.297)">
    <g id="Group_32" data-name="Group 32">
      <rect id="Rectangle_11" data-name="Rectangle 11" width="1.465" height="1.465" fill="#fff"/>
    </g>
  </g>
  <g id="Group_35" data-name="Group 35" transform="translate(25.635 29.297)">
    <g id="Group_34" data-name="Group 34">
      <rect id="Rectangle_12" data-name="Rectangle 12" width="1.465" height="1.465" fill="#fff"/>
    </g>
  </g>
  <g id="Group_37" data-name="Group 37" transform="translate(0.732 32.226)">
    <g id="Group_36" data-name="Group 36">
      <rect id="Rectangle_13" data-name="Rectangle 13" width="11.719" height="1.465" fill="#fff"/>
    </g>
  </g>
  <g id="Group_39" data-name="Group 39" transform="translate(5.127 29.297)">
    <g id="Group_38" data-name="Group 38">
      <rect id="Rectangle_14" data-name="Rectangle 14" width="2.93" height="1.465" fill="#fff"/>
    </g>
  </g>
  <g id="Group_41" data-name="Group 41" transform="translate(5.127 35.156)">
    <g id="Group_40" data-name="Group 40">
      <rect id="Rectangle_15" data-name="Rectangle 15" width="2.93" height="1.465" fill="#fff"/>
    </g>
  </g>
  <g id="Group_43" data-name="Group 43" transform="translate(31.494 32.226)">
    <g id="Group_42" data-name="Group 42">
      <rect id="Rectangle_16" data-name="Rectangle 16" width="11.719" height="1.465" fill="#fff"/>
    </g>
  </g>
  <g id="Group_45" data-name="Group 45" transform="translate(36.621 32.959)">
    <g id="Group_44" data-name="Group 44">
      <rect id="Rectangle_17" data-name="Rectangle 17" width="1.465" height="10.254" fill="#fff"/>
    </g>
  </g>
  <g id="Group_47" data-name="Group 47" transform="translate(35.888 29.297)">
    <g id="Group_46" data-name="Group 46">
      <rect id="Rectangle_18" data-name="Rectangle 18" width="2.93" height="1.465" fill="#fff"/>
    </g>
  </g>
  <g id="Group_49" data-name="Group 49" transform="translate(33.691 36.621)">
    <g id="Group_48" data-name="Group 48">
      <rect id="Rectangle_19" data-name="Rectangle 19" width="1.465" height="2.197" fill="#fff"/>
    </g>
  </g>
  <g id="Group_51" data-name="Group 51" transform="translate(39.551 36.621)">
    <g id="Group_50" data-name="Group 50">
      <rect id="Rectangle_20" data-name="Rectangle 20" width="1.465" height="2.197" fill="#fff"/>
    </g>
  </g>
  <g id="Group_53" data-name="Group 53" transform="translate(12.451)">
    <g id="Group_52" data-name="Group 52">
      <path id="Path_19" data-name="Path 19" d="M163.894,11.933l-2.715-2.715V.732A.732.732,0,0,0,160.446,0H148.727a.733.733,0,0,0-.732.732V9.218l-2.715,2.715a.732.732,0,0,0,.518,1.25h17.578a.732.732,0,0,0,.518-1.25Zm-16.328-.215,1.679-1.679a.731.731,0,0,0,.215-.518V1.465h10.254V9.521a.731.731,0,0,0,.215.518l1.679,1.679H147.566Z" transform="translate(-145.065)" fill="#fff"/>
    </g>
  </g>
  <g id="Group_55" data-name="Group 55" transform="translate(36.621 16.113)">
    <g id="Group_54" data-name="Group 54">
      <path id="Path_20" data-name="Path 20" d="M429.6,187.733a2.933,2.933,0,0,0-2.93,2.93v.732h1.465v-.732a1.465,1.465,0,0,1,2.93,0v8.057h1.465v-8.057A2.933,2.933,0,0,0,429.6,187.733Z" transform="translate(-426.667 -187.733)" fill="#fff"/>
    </g>
  </g>
  <g id="Group_57" data-name="Group 57" transform="translate(39.551 23.437)">
    <g id="Group_56" data-name="Group 56">
      <rect id="Rectangle_21" data-name="Rectangle 21" width="2.197" height="1.465" fill="#fff"/>
    </g>
  </g>
  <g id="Group_59" data-name="Group 59" transform="translate(13.184 21.973)">
    <g id="Group_58" data-name="Group 58">
      <path id="Path_21" data-name="Path 21" d="M161.658,256h-7.324a.732.732,0,0,0-.732.732v4.395a.732.732,0,0,0,.732.732h7.324a.732.732,0,0,0,.732-.732v-4.395A.732.732,0,0,0,161.658,256Zm-.732,4.395h-5.859v-2.93h5.859Z" transform="translate(-153.601 -256)" fill="#fff"/>
    </g>
  </g>
  <g id="Group_61" data-name="Group 61" transform="translate(11.719 23.437)">
    <g id="Group_60" data-name="Group 60">
      <rect id="Rectangle_22" data-name="Rectangle 22" width="2.197" height="1.465" fill="#fff"/>
    </g>
  </g>
  <g id="Group_63" data-name="Group 63" transform="translate(21.24 23.437)">
    <g id="Group_62" data-name="Group 62">
      <rect id="Rectangle_23" data-name="Rectangle 23" width="2.197" height="1.465" fill="#fff"/>
    </g>
  </g>
  <g id="Group_65" data-name="Group 65">
    <g id="Group_64" data-name="Group 64">
      <path id="Path_22" data-name="Path 22" d="M12.451,0H.732A.733.733,0,0,0,0,.732V9.521a.733.733,0,0,0,.732.732H12.451a.733.733,0,0,0,.732-.732V.732A.733.733,0,0,0,12.451,0Zm-.732,8.789H1.465V1.465H11.719V8.789Z" fill="#fff"/>
    </g>
  </g>
  <g id="Group_67" data-name="Group 67" transform="translate(8.789 4.395)">
    <g id="Group_66" data-name="Group 66">
      <rect id="Rectangle_24" data-name="Rectangle 24" width="1.465" height="2.93" fill="#fff"/>
    </g>
  </g>
  <g id="Group_69" data-name="Group 69" transform="translate(30.762)">
    <g id="Group_68" data-name="Group 68">
      <path id="Path_23" data-name="Path 23" d="M370.851,0H359.132a.732.732,0,0,0-.732.732V9.521a.732.732,0,0,0,.732.732h11.719a.732.732,0,0,0,.732-.732V.732A.732.732,0,0,0,370.851,0Zm-.732,8.789H359.865V1.465h10.254V8.789Z" transform="translate(-358.4)" fill="#fff"/>
    </g>
  </g>
  <g id="Group_71" data-name="Group 71" transform="translate(33.691 4.395)">
    <g id="Group_70" data-name="Group 70">
      <rect id="Rectangle_25" data-name="Rectangle 25" width="1.465" height="2.93" fill="#fff"/>
    </g>
  </g>
  <g id="Group_73" data-name="Group 73" transform="translate(0 14.648)">
    <g id="Group_72" data-name="Group 72">
      <rect id="Rectangle_26" data-name="Rectangle 26" width="13.184" height="1.465" fill="#fff"/>
    </g>
  </g>
  <g id="Group_75" data-name="Group 75" transform="translate(1.465 13.184)">
    <g id="Group_74" data-name="Group 74">
      <rect id="Rectangle_27" data-name="Rectangle 27" width="1.465" height="6.592" fill="#fff"/>
    </g>
  </g>
  <g id="Group_77" data-name="Group 77" transform="translate(0 19.043)">
    <g id="Group_76" data-name="Group 76">
      <path id="Path_24" data-name="Path 24" d="M2.2,221.867a2.2,2.2,0,1,0,2.2,2.2A2.2,2.2,0,0,0,2.2,221.867Zm0,2.93a.732.732,0,1,1,.732-.732A.734.734,0,0,1,2.2,224.8Z" transform="translate(0 -221.867)" fill="#fff"/>
    </g>
  </g>
  <g id="Group_79" data-name="Group 79" transform="translate(4.395 13.184)">
    <g id="Group_78" data-name="Group 78">
      <rect id="Rectangle_28" data-name="Rectangle 28" width="1.465" height="6.592" fill="#fff"/>
    </g>
  </g>
  <g id="Group_81" data-name="Group 81" transform="translate(2.93 19.043)">
    <g id="Group_80" data-name="Group 80">
      <path id="Path_25" data-name="Path 25" d="M36.33,221.867a2.2,2.2,0,1,0,2.2,2.2A2.2,2.2,0,0,0,36.33,221.867Zm0,2.93a.732.732,0,1,1,.732-.732A.734.734,0,0,1,36.33,224.8Z" transform="translate(-34.133 -221.867)" fill="#fff"/>
    </g>
  </g>
  <g id="Group_83" data-name="Group 83" transform="translate(7.324 13.184)">
    <g id="Group_82" data-name="Group 82">
      <rect id="Rectangle_29" data-name="Rectangle 29" width="1.465" height="6.592" fill="#fff"/>
    </g>
  </g>
  <g id="Group_85" data-name="Group 85" transform="translate(5.859 19.043)">
    <g id="Group_84" data-name="Group 84">
      <path id="Path_26" data-name="Path 26" d="M70.464,221.867a2.2,2.2,0,1,0,2.2,2.2A2.2,2.2,0,0,0,70.464,221.867Zm0,2.93a.732.732,0,1,1,.732-.732A.734.734,0,0,1,70.464,224.8Z" transform="translate(-68.267 -221.867)" fill="#fff"/>
    </g>
  </g>
</svg>
