<svg xmlns="http://www.w3.org/2000/svg" width="50.485" height="59.527" viewBox="0 0 50.485 59.527">
  <g id="parquet" transform="translate(-38.889)">
    <g id="Group_14" data-name="Group 14" transform="translate(38.889 0)">
      <g id="Group_13" data-name="Group 13" transform="translate(0 0)">
        <path id="Path_9" data-name="Path 9" d="M89.025,43.276l-3.887-3.887L89.026,35.5a1.186,1.186,0,0,0,0-1.677L85.05,29.847l3.88-3.88a1.186,1.186,0,0,0,0-1.677L64.988.347a1.186,1.186,0,0,0-1.677,0l-24,24a1.186,1.186,0,0,0,0,1.677L43.181,29.9l-3.887,3.887a1.186,1.186,0,0,0,0,1.677l3.874,3.874-3.931,3.931a1.186,1.186,0,0,0,0,1.677L43.181,48.9l-3.887,3.887a1.186,1.186,0,0,0,0,1.677l4.72,4.72a1.186,1.186,0,0,0,1.677,0L64.152,40.718,82.5,59.071a1.186,1.186,0,0,0,1.677,0l4.712-4.712a1.186,1.186,0,0,0,0-1.677l-3.8-3.8,3.93-3.93A1.186,1.186,0,0,0,89.025,43.276Zm-2.514-8.614-3.05,3.05L65.807,20.057l3.05-3.05Zm-.1-9.533L83.373,28.17,65.821,10.618l3.042-3.042Zm-44.594.062L64.149,2.863,67.186,5.9,44.858,28.227ZM41.81,34.63,64.144,12.3l3.035,3.035L44.845,37.665Zm-.058,9.482L64.13,21.734l3.107,3.107L44.858,47.219Zm3.1,12.552L41.81,53.621,64.144,31.287l3.043,3.043ZM86.378,53.52l-3.035,3.035L65.829,39.041l3.035-3.035Zm-2.961-6.315-17.6-17.6,3.092-3.092,17.6,17.6Z" transform="translate(-38.889 0)" fill="#fff"/>
      </g>
    </g>
    <g id="Group_16" data-name="Group 16" transform="translate(76.641 18.32)">
      <g id="Group_15" data-name="Group 15">
        <path id="Path_10" data-name="Path 10" d="M371.258,163.558l-5.633-5.633a1.186,1.186,0,1,0-1.677,1.677l5.633,5.633a1.186,1.186,0,1,0,1.677-1.677Z" transform="translate(-363.601 -157.578)" fill="#fff"/>
      </g>
    </g>
    <g id="Group_18" data-name="Group 18" transform="translate(73.536 15.215)">
      <g id="Group_17" data-name="Group 17" transform="translate(0)">
        <path id="Path_11" data-name="Path 11" d="M339.472,131.772l-.556-.556a1.186,1.186,0,1,0-1.677,1.677l.556.556a1.186,1.186,0,0,0,1.677-1.677Z" transform="translate(-336.892 -130.869)" fill="#fff"/>
      </g>
    </g>
  </g>
</svg>
