<svg xmlns="http://www.w3.org/2000/svg" width="62.799" height="55.543"><g fill="#fff"><path data-name="Path 257" d="M60.652 15.807h-9.827l5.868-6.532a1.825 1.825 0 0 0-.138-2.578l-2.524-2.266a1.827 1.827 0 0 0-2.578.138l-10.1 11.239h-17.57a.92.92 0 0 0 0 1.84h15.918l-4.1 4.569a1.815 1.815 0 0 0-.465 1.318c0 .057.009.114.017.171l-1.411 3.814a1.462 1.462 0 0 0 2.024 1.818l3.645-1.812h.169a1.815 1.815 0 0 0 1.261-.6l8.331-9.275h11.479a.307.307 0 0 1 .307.307v35.438a.307.307 0 0 1-.307.307h-6.692a.92.92 0 1 0 0 1.84h6.692a2.149 2.149 0 0 0 2.146-2.146V17.954a2.149 2.149 0 0 0-2.146-2.146zm-5.333-7.751l-1.1 1.216-2.5-2.247 1.093-1.216zm-4.824.338l.567.509-13.515 15.045-.567-.509zM36.47 25.448l1.063.955-1.734.862zm3.012.232l-.567-.509L52.426 10.13l.566.509zm0 0"/><path data-name="Path 258" d="M49.954 53.7H8.579a6.747 6.747 0 0 1-6.739-6.736v-.486a6.746 6.746 0 0 1 6.739-6.739h1.891a2.149 2.149 0 0 0 2.146-2.146V17.647h7.167a.92.92 0 0 0 0-1.84h-7.168v-3.194a.92.92 0 0 0-1.84 0v24.979a.307.307 0 0 1-.307.307h-1.89a8.568 8.568 0 0 0-6.738 3.275V8.579A6.747 6.747 0 0 1 8.579 1.84h1.89a.307.307 0 0 1 .307.307v6.46a.92.92 0 0 0 1.84 0v-6.46A2.149 2.149 0 0 0 10.469 0h-1.89A8.589 8.589 0 0 0 0 8.579v38.385a8.589 8.589 0 0 0 8.579 8.579h41.375a.92.92 0 1 0 0-1.84zm0 0"/><path data-name="Path 259" d="M49.085 25.519a7.081 7.081 0 0 0-7.059 6.649h-4.235a.92.92 0 0 0-.92.92v10.508a.92.92 0 0 0 .92.92h10.508a.92.92 0 0 0 .92-.92v-3.932a7.073 7.073 0 0 0-.134-14.144zM47.379 37.54a5.254 5.254 0 0 1-3.332-3.532h3.332zm-8.669 5.136v-8.668h3.448a7.1 7.1 0 0 0 5.225 5.45v3.219zm10.509-4.853v-4.736a.92.92 0 0 0-.92-.92H43.87a5.233 5.233 0 1 1 5.349 5.656zm0 0"/><path data-name="Path 260" d="M52.504 40.302a.92.92 0 0 0 0 1.84h2.046a.92.92 0 0 0 0-1.84zm0 0"/><path data-name="Path 261" d="M55.47 43.596a.92.92 0 0 0-.92-.92h-2.046a.92.92 0 1 0 0 1.84h2.046a.92.92 0 0 0 .92-.92zm0 0"/><path data-name="Path 262" d="M16.804 25.153h1.472a.92.92 0 0 0 0-1.84h-1.472a.92.92 0 1 0 0 1.84zm0 0"/><path data-name="Path 263" d="M16.804 27.833h7.1a.92.92 0 1 0 0-1.84h-7.1a.92.92 0 1 0 0 1.84zm0 0"/><path data-name="Path 264" d="M22.433 25.153h1.472a.92.92 0 1 0 0-1.84h-1.472a.92.92 0 0 0 0 1.84zm0 0"/><path data-name="Path 265" d="M29.534 23.313h-1.472a.92.92 0 0 0 0 1.84h1.472a.92.92 0 0 0 0-1.84zm0 0"/><path data-name="Path 266" d="M16.804 30.493h7.1a.92.92 0 0 0 0-1.84h-7.1a.92.92 0 0 0 0 1.84zm0 0"/><path data-name="Path 267" d="M15.884 32.233a.92.92 0 0 0 .92.92h11.258a.92.92 0 0 0 0-1.84H16.804a.92.92 0 0 0-.92.92zm0 0"/><path data-name="Path 268" d="M30.454 34.896a.92.92 0 0 0-.92-.92h-12.73a.92.92 0 1 0 0 1.84h12.73a.92.92 0 0 0 .92-.92zm0 0"/><path data-name="Path 269" d="M20.259 39.179a.92.92 0 0 0-.92-.92h-2.535a.92.92 0 0 0-.92.92v2.535a.92.92 0 0 0 .92.92h2.535a.92.92 0 0 0 .92-.92zm-1.84 1.615h-.7v-.7h.7zm0 0"/><path data-name="Path 270" d="M26.341 39.179a.92.92 0 0 0-.92-.92h-2.535a.92.92 0 0 0-.92.92v2.535a.92.92 0 0 0 .92.92h2.535a.92.92 0 0 0 .92-.92zm-1.84 1.615h-.7v-.7h.7zm0 0"/><path data-name="Path 271" d="M32.423 39.179a.92.92 0 0 0-.92-.92h-2.531a.92.92 0 0 0-.92.92v2.535a.92.92 0 0 0 .92.92h2.535a.92.92 0 0 0 .92-.92zm-1.84 1.615h-.7v-.7h.7zm0 0"/><path data-name="Path 272" d="M19.339 44.719h-2.535a.92.92 0 0 0-.92.92v2.535a.92.92 0 0 0 .92.92h2.535a.92.92 0 0 0 .92-.92v-2.535a.92.92 0 0 0-.92-.92zm-.92 2.535h-.7v-.7h.7zm0 0"/><path data-name="Path 273" d="M25.421 44.719h-2.535a.92.92 0 0 0-.92.92v2.535a.92.92 0 0 0 .92.92h2.535a.92.92 0 0 0 .92-.92v-2.535a.92.92 0 0 0-.92-.92zm-.92 2.535h-.7v-.7h.7zm0 0"/><path data-name="Path 274" d="M28.972 49.093h2.535a.92.92 0 0 0 .92-.92v-2.537a.92.92 0 0 0-.92-.92h-2.535a.92.92 0 0 0-.92.92v2.535a.92.92 0 0 0 .92.922zm.92-2.535h.7v.695h-.7zm0 0"/></g></svg>