<svg xmlns="http://www.w3.org/2000/svg" width="52.406" height="52.406"><path data-name="Path 278" d="M10.481 0H0v52.406h52.406V0zm29.7 10.481h1.747v31.444h-1.75zm-1.75 31.444h-6.987V10.481h6.988zm-8.734 0h-6.988V10.481H29.7zm-8.734 0h-6.988V10.481h6.988zm-8.734 0h-1.748V10.481h1.747zM1.747 1.747h6.987v40.178h-.873v-.873a.873.873 0 0 0-1.747 0v.873h-.873v-6.114a.873.873 0 1 0-1.747 0v6.114H1.747zm0 48.913v-6.988h40.178v1.747h-4.367a.873.873 0 0 0 0 1.747h4.367v.873H39.3a.873.873 0 0 0 0 1.747h2.62v.873zm48.913 0h-6.988V10.481h1.747v4.367a.873.873 0 0 0 1.747 0v-4.367h.873V13.1a.873.873 0 1 0 1.747 0v-2.62h.873zM41.925 8.734H10.481v-.873h1.747a.873.873 0 0 0 0-1.747h-1.747v-.873H13.1a.873.873 0 1 0 0-1.747h-2.62V1.747h40.179v6.987z" fill="#fff"/><circle data-name="Ellipse 6" cx=".873" cy=".873" r=".873" transform="translate(47.166 2.62)" fill="#fff"/><circle data-name="Ellipse 7" cx=".873" cy=".873" r=".873" transform="translate(43.672 2.62)" fill="#fff"/><circle data-name="Ellipse 8" cx=".873" cy=".873" r=".873" transform="translate(47.166 6.114)" fill="#fff"/><circle data-name="Ellipse 9" cx=".873" cy=".873" r=".873" transform="translate(43.672 6.114)" fill="#fff"/><circle data-name="Ellipse 10" cx=".873" cy=".873" r=".873" transform="translate(48.039 47.166)" fill="#fff"/><circle data-name="Ellipse 11" cx=".873" cy=".873" r=".873" transform="translate(48.039 43.672)" fill="#fff"/><circle data-name="Ellipse 12" cx=".873" cy=".873" r=".873" transform="translate(44.545 47.166)" fill="#fff"/><circle data-name="Ellipse 13" cx=".873" cy=".873" r=".873" transform="translate(44.545 43.672)" fill="#fff"/><circle data-name="Ellipse 14" cx=".873" cy=".873" r=".873" transform="translate(3.494 48.039)" fill="#fff"/><circle data-name="Ellipse 15" cx=".873" cy=".873" r=".873" transform="translate(6.988 48.039)" fill="#fff"/><circle data-name="Ellipse 16" cx=".873" cy=".873" r=".873" transform="translate(3.494 44.545)" fill="#fff"/><circle data-name="Ellipse 17" cx=".873" cy=".873" r=".873" transform="translate(6.988 44.545)" fill="#fff"/><circle data-name="Ellipse 18" cx=".873" cy=".873" r=".873" transform="translate(2.62 3.494)" fill="#fff"/><circle data-name="Ellipse 19" cx=".873" cy=".873" r=".873" transform="translate(2.62 6.988)" fill="#fff"/><circle data-name="Ellipse 20" cx=".873" cy=".873" r=".873" transform="translate(6.114 3.494)" fill="#fff"/><circle data-name="Ellipse 21" cx=".873" cy=".873" r=".873" transform="translate(6.114 6.988)" fill="#fff"/></svg>