<svg xmlns="http://www.w3.org/2000/svg" width="505.974" height="566.345"><g data-name="Group 88" opacity=".04" fill="#e35760"><path data-name="Path 30" d="M340.948 488.092v28.932H220.065V536.6H340.91v27.719H153.76V6.07c21.168 14.066 41.008 26.516 59.819 40.371 3.841 2.828 5.262 10.9 5.317 16.586.423 43.8.232 87.611.232 133.3h122.4v28.655H220.363c-.537 6.967-.957 12.454-1.532 19.983h122.297v28.7H220.235c-.44 7.116-.78 12.593-1.241 20.021h121.905v28.774h-120.8v19.5h120.703v28.166H220.595v20.659h120.322v28.322H220.404c-.568 7.185-1 12.655-1.553 19.619h121.588v29.3H220.266c-.454 7.106-.8 12.551-1.279 20.066z" fill-rule="evenodd"/><path data-name="Path 31" d="M358.085 563.717v-355.53c15.837 23.317 35.539 37.258 34.149 66.384-2.336 48.988-.645 98.166-.648 147.268v18.482h66.956v123.4z" fill-rule="evenodd"/><path data-name="Path 32" d="M8.648 48.69h127.767v26.007c-40.052 0-79.126.964-118.114-.433-17.847-.64-6.537-15.401-9.653-25.574z" fill-rule="evenodd"/><path data-name="Path 33" d="M9.57 417.697v-24.61h126.707v24.61z" fill-rule="evenodd"/><path data-name="Path 34" d="M136.322 294.96v25.432c-40.055 0-79.078.939-118.024-.413-18.145-.631-6.017-15.529-9.7-25.019z" fill-rule="evenodd"/><path data-name="Path 35" d="M10.766 122.774c-4.246-25.868-4.243-25.9 19.126-25.92 35.009-.024 70.017 0 106.235 0v25.92z" fill-rule="evenodd"/><path data-name="Path 36" d="M135.923 171.771H11.182c-5.536-24.534-4.61-25.657 18.364-25.549q43.294.2 86.592.042c22.496-.056 22.496-.139 19.785 25.507z" fill-rule="evenodd"/><path data-name="Path 37" d="M9.515 368.573v-24.522h126.568v24.522z" fill-rule="evenodd"/><path data-name="Path 38" d="M9.778.001h126.307v24.128H9.785z" fill-rule="evenodd"/><path data-name="Path 39" d="M504.909 564.508h-32.412V450.834c22.461 12.714 36.638 28.225 32.873 56.26-2.426 18.09-.461 36.766-.461 57.414z" fill-rule="evenodd"/><path data-name="Path 40" d="M136.393 442.636v23.563H9.793v-23.563z" fill-rule="evenodd"/><path data-name="Path 41" d="M10.042 245.736h126.4v23.6h-126.4z" fill-rule="evenodd"/><path data-name="Path 42" d="M136.537 491.829v23.362H9.723v-23.362z" fill-rule="evenodd"/><path data-name="Path 43" d="M136.997 542.976v23.362H10.18v-23.362z" fill-rule="evenodd"/><path data-name="Path 44" d="M136.464 196.97v23.431H9.674V196.97z" fill-rule="evenodd"/><path data-name="Rectangle 50" d="M0 0h13.245v566.344H0z"/></g></svg>