<svg xmlns="http://www.w3.org/2000/svg" width="54.19" height="52.596"><path d="M54.19 38.252L42.236 11.157V0H11.157v11.157L0 38.252v10.36h2.391V52.6h6.375v-3.989h36.658V52.6H51.8v-3.989h2.39zM12.751 11.157V1.594h27.891v9.563l11.866 27.095H1.681zM7.172 51H3.985v-2.389h3.188zm43.033 0h-3.187v-2.389h3.188zm2.395-3.982h-51v-7.173h51zM40.4 16.735H14.1L6.814 35.861h40.865zM9.125 34.267l6.064-15.938H39.3l6.06 15.938zM26.3 10.4a3.227 3.227 0 0 0-3.227-3.227h-6.3a3.227 3.227 0 0 0-3.226 3.227v2.311a3.227 3.227 0 0 0 3.227 3.227h6.3a3.227 3.227 0 0 0 3.226-3.227zm-1.6 2.311a1.634 1.634 0 0 1-1.634 1.634h-6.3a1.634 1.634 0 0 1-1.634-1.634V10.4a1.634 1.634 0 0 1 1.634-1.634h6.3A1.634 1.634 0 0 1 24.7 10.4zM39.845 10.4a3.227 3.227 0 0 0-3.227-3.227h-6.3a3.227 3.227 0 0 0-3.223 3.227v2.311a3.227 3.227 0 0 0 3.227 3.227h6.3a3.227 3.227 0 0 0 3.227-3.227zm-1.594 2.311a1.634 1.634 0 0 1-1.634 1.634h-6.3a1.634 1.634 0 0 1-1.634-1.634V10.4a1.634 1.634 0 0 1 1.634-1.634h6.3a1.634 1.634 0 0 1 1.635 1.634z" fill="#fff"/></svg>