<svg xmlns="http://www.w3.org/2000/svg" width="51.923" height="51.923"><path d="M50.4 0H1.521A1.521 1.521 0 0 0 0 1.521V50.4a1.521 1.521 0 0 0 1.521 1.521H50.4a1.521 1.521 0 0 0 1.523-1.521V1.521A1.521 1.521 0 0 0 50.4 0zM3.042 5.277l8.916 8.916v23.621l-8.916 8.915zm34.772 6.681H14.026L5.11 3.042h41.619zM27.5 36.923h-3.08v-8.629h3.08zm1.521-11.671H22.9a1.521 1.521 0 0 0-1.521 1.521v10.15H15V15h21.923v21.923h-6.379v-10.15a1.521 1.521 0 0 0-1.521-1.521zM14.109 39.965H37.73l8.916 8.916H5.194zM39.965 37.9V14.109l8.915-8.915v41.619zm0 0" fill="#fff"/></svg>