<svg xmlns="http://www.w3.org/2000/svg" width="43.945" height="43.945"><g data-name="Group 19"><path data-name="Path 14" d="M31.494 26.367H12.451a.732.732 0 0 0-.732.732v16.113a.732.732 0 0 0 .732.732h19.043a.732.732 0 0 0 .732-.732V27.099a.732.732 0 0 0-.732-.732zm-.732 16.113H13.185V27.832h17.578z" fill="#fff"/></g><g data-name="Group 21"><g data-name="Group 20"><path data-name="Path 15" d="M31.494 26.367H12.451a.732.732 0 0 0-.732.732v16.113a.732.732 0 0 0 .732.732h19.043a.732.732 0 0 0 .732-.732V27.099a.732.732 0 0 0-.732-.732zm-.732 16.113H13.185V27.832h17.578z" fill="#fff"/></g></g><g data-name="Group 23"><g data-name="Group 22"><path data-name="Path 16" d="M12.451 26.367H.732a.732.732 0 0 0-.732.732v16.113a.732.732 0 0 0 .732.732h11.719a.732.732 0 0 0 .732-.732V27.099a.732.732 0 0 0-.732-.732zm-.732 16.113H1.465V27.832h10.254V42.48z" fill="#fff"/></g></g><g data-name="Group 25"><g data-name="Group 24"><path data-name="Path 17" d="M43.213 26.367H31.494a.732.732 0 0 0-.732.732v16.113a.732.732 0 0 0 .732.732h11.719a.732.732 0 0 0 .732-.732V27.099a.732.732 0 0 0-.732-.732zm-.732 16.113H32.227V27.832h10.254V42.48z" fill="#fff"/></g></g><g data-name="Group 27"><g data-name="Group 26"><path data-name="Path 18" d="M28.564 32.226H15.381a.732.732 0 0 0-.732.732v7.324a.732.732 0 0 0 .732.732h13.184a.732.732 0 0 0 .732-.732v-7.323a.732.732 0 0 0-.733-.733zm-.732 7.324H16.113v-5.859h11.718v5.859z" fill="#fff"/></g></g><g data-name="Group 29"><g data-name="Group 28"><path data-name="Rectangle 9" fill="#fff" d="M22.705 29.297h1.465v1.465h-1.465z"/></g></g><g data-name="Group 31"><g data-name="Group 30"><path data-name="Rectangle 10" fill="#fff" d="M19.775 29.297h1.465v1.465h-1.465z"/></g></g><g data-name="Group 33"><g data-name="Group 32"><path data-name="Rectangle 11" fill="#fff" d="M16.846 29.297h1.465v1.465h-1.465z"/></g></g><g data-name="Group 35"><g data-name="Group 34"><path data-name="Rectangle 12" fill="#fff" d="M25.635 29.297H27.1v1.465h-1.465z"/></g></g><g data-name="Group 37"><g data-name="Group 36"><path data-name="Rectangle 13" fill="#fff" d="M.732 32.226h11.719v1.465H.732z"/></g></g><g data-name="Group 39"><g data-name="Group 38"><path data-name="Rectangle 14" fill="#fff" d="M5.127 29.297h2.93v1.465h-2.93z"/></g></g><g data-name="Group 41"><g data-name="Group 40"><path data-name="Rectangle 15" fill="#fff" d="M5.127 35.156h2.93v1.465h-2.93z"/></g></g><g data-name="Group 43"><g data-name="Group 42"><path data-name="Rectangle 16" fill="#fff" d="M31.494 32.226h11.719v1.465H31.494z"/></g></g><g data-name="Group 45"><g data-name="Group 44"><path data-name="Rectangle 17" fill="#fff" d="M36.621 32.959h1.465v10.254h-1.465z"/></g></g><g data-name="Group 47"><g data-name="Group 46"><path data-name="Rectangle 18" fill="#fff" d="M35.888 29.297h2.93v1.465h-2.93z"/></g></g><g data-name="Group 49"><g data-name="Group 48"><path data-name="Rectangle 19" fill="#fff" d="M33.691 36.621h1.465v2.197h-1.465z"/></g></g><g data-name="Group 51"><g data-name="Group 50"><path data-name="Rectangle 20" fill="#fff" d="M39.551 36.621h1.465v2.197h-1.465z"/></g></g><g data-name="Group 53"><g data-name="Group 52"><path data-name="Path 19" d="M31.28 11.933l-2.715-2.715V.732A.732.732 0 0 0 27.832 0H16.113a.733.733 0 0 0-.732.732v8.486l-2.715 2.715a.732.732 0 0 0 .518 1.25h17.578a.732.732 0 0 0 .518-1.25zm-16.328-.215l1.679-1.679a.731.731 0 0 0 .215-.518V1.465H27.1v8.056a.731.731 0 0 0 .215.518l1.679 1.679H14.952z" fill="#fff"/></g></g><g data-name="Group 55"><g data-name="Group 54"><path data-name="Path 20" d="M39.554 16.113a2.933 2.933 0 0 0-2.93 2.93v.732h1.465v-.732a1.465 1.465 0 0 1 2.93 0V27.1h1.465v-8.057a2.933 2.933 0 0 0-2.93-2.93z" fill="#fff"/></g></g><g data-name="Group 57"><g data-name="Group 56"><path data-name="Rectangle 21" fill="#fff" d="M39.551 23.437h2.197v1.465h-2.197z"/></g></g><g data-name="Group 59"><g data-name="Group 58"><path data-name="Path 21" d="M21.241 21.973h-7.324a.732.732 0 0 0-.732.732V27.1a.732.732 0 0 0 .732.732h7.324a.732.732 0 0 0 .732-.732v-4.395a.732.732 0 0 0-.732-.732zm-.732 4.395H14.65v-2.93h5.859z" fill="#fff"/></g></g><g data-name="Group 61"><g data-name="Group 60"><path data-name="Rectangle 22" fill="#fff" d="M11.719 23.437h2.197v1.465h-2.197z"/></g></g><g data-name="Group 63"><g data-name="Group 62"><path data-name="Rectangle 23" fill="#fff" d="M21.24 23.437h2.197v1.465H21.24z"/></g></g><g data-name="Group 65"><g data-name="Group 64"><path data-name="Path 22" d="M12.451 0H.732A.733.733 0 0 0 0 .732v8.789a.733.733 0 0 0 .732.732h11.719a.733.733 0 0 0 .732-.732V.732A.733.733 0 0 0 12.451 0zm-.732 8.789H1.465V1.465h10.254v7.324z" fill="#fff"/></g></g><g data-name="Group 67"><g data-name="Group 66"><path data-name="Rectangle 24" fill="#fff" d="M8.789 4.395h1.465v2.93H8.789z"/></g></g><g data-name="Group 69"><g data-name="Group 68"><path data-name="Path 23" d="M43.213 0H31.494a.732.732 0 0 0-.732.732v8.789a.732.732 0 0 0 .732.732h11.719a.732.732 0 0 0 .732-.732V.732A.732.732 0 0 0 43.213 0zm-.732 8.789H32.227V1.465h10.254v7.324z" fill="#fff"/></g></g><g data-name="Group 71"><g data-name="Group 70"><path data-name="Rectangle 25" fill="#fff" d="M33.691 4.395h1.465v2.93h-1.465z"/></g></g><g data-name="Group 73"><g data-name="Group 72"><path data-name="Rectangle 26" fill="#fff" d="M0 14.648h13.184v1.465H0z"/></g></g><g data-name="Group 75"><g data-name="Group 74"><path data-name="Rectangle 27" fill="#fff" d="M1.465 13.184H2.93v6.592H1.465z"/></g></g><g data-name="Group 77"><g data-name="Group 76"><path data-name="Path 24" d="M2.2 19.043a2.2 2.2 0 1 0 2.2 2.2 2.2 2.2 0 0 0-2.2-2.2zm0 2.93a.732.732 0 1 1 .732-.732.734.734 0 0 1-.732.735z" fill="#fff"/></g></g><g data-name="Group 79"><g data-name="Group 78"><path data-name="Rectangle 28" fill="#fff" d="M4.395 13.184H5.86v6.592H4.395z"/></g></g><g data-name="Group 81"><g data-name="Group 80"><path data-name="Path 25" d="M5.127 19.043a2.2 2.2 0 1 0 2.2 2.2 2.2 2.2 0 0 0-2.2-2.2zm0 2.93a.732.732 0 1 1 .732-.732.734.734 0 0 1-.732.735z" fill="#fff"/></g></g><g data-name="Group 83"><g data-name="Group 82"><path data-name="Rectangle 29" fill="#fff" d="M7.324 13.184h1.465v6.592H7.324z"/></g></g><g data-name="Group 85"><g data-name="Group 84"><path data-name="Path 26" d="M8.056 19.043a2.2 2.2 0 1 0 2.2 2.2 2.2 2.2 0 0 0-2.2-2.2zm0 2.93a.732.732 0 1 1 .732-.732.734.734 0 0 1-.732.735z" fill="#fff"/></g></g></svg>