<svg xmlns="http://www.w3.org/2000/svg" width="50.485" height="59.527"><g data-name="Group 14"><g data-name="Group 13"><path data-name="Path 9" d="M50.136 43.276l-3.887-3.887 3.888-3.889a1.186 1.186 0 0 0 0-1.677l-3.976-3.976 3.88-3.88a1.186 1.186 0 0 0 0-1.677L26.099.347a1.186 1.186 0 0 0-1.677 0l-24 24a1.186 1.186 0 0 0 0 1.677l3.87 3.876-3.887 3.887a1.186 1.186 0 0 0 0 1.677l3.874 3.874-3.931 3.931a1.186 1.186 0 0 0 0 1.677L4.292 48.9.405 52.787a1.186 1.186 0 0 0 0 1.677l4.72 4.72a1.186 1.186 0 0 0 1.677 0l18.461-18.466 18.348 18.353a1.186 1.186 0 0 0 1.677 0L50 54.359a1.186 1.186 0 0 0 0-1.677l-3.8-3.8 3.93-3.93a1.186 1.186 0 0 0 .006-1.676zm-2.514-8.614l-3.05 3.05-17.654-17.655 3.05-3.05zm-.1-9.533l-3.038 3.041-17.552-17.552 3.042-3.042zm-44.594.062L25.26 2.863 28.297 5.9 5.969 28.227zm-.007 9.439L25.255 12.3l3.035 3.035-22.334 22.33zm-.058 9.482l22.378-22.378 3.107 3.107L5.969 47.219zm3.1 12.552l-3.042-3.043 22.334-22.334 3.043 3.043zm41.526-3.144l-3.035 3.035L26.94 39.041l3.035-3.035zm-2.961-6.315l-17.6-17.6 3.092-3.092 17.6 17.6z" fill="#fff"/></g></g><g data-name="Group 16"><g data-name="Group 15"><path data-name="Path 10" d="M45.409 24.3l-5.633-5.633a1.186 1.186 0 1 0-1.677 1.677l5.633 5.633a1.186 1.186 0 1 0 1.677-1.677z" fill="#fff"/></g></g><g data-name="Group 18"><g data-name="Group 17"><path data-name="Path 11" d="M37.227 16.118l-.556-.556a1.186 1.186 0 1 0-1.677 1.677l.556.556a1.186 1.186 0 0 0 1.677-1.677z" fill="#fff"/></g></g></svg>